<svg xmlns="http://www.w3.org/2000/svg" xmlns:xlink="http://www.w3.org/1999/xlink" width="500" zoomAndPan="magnify" viewBox="0 0 375 374.999991" height="500" preserveAspectRatio="xMidYMid meet" version="1.0"><defs><clipPath id="4162f7752d"><path d="M 42.933594 16.640625 L 76.222656 16.640625 L 76.222656 49.929688 L 42.933594 49.929688 Z M 42.933594 16.640625 " clip-rule="nonzero"/></clipPath><clipPath id="06a4384318"><path d="M 76.222656 33.285156 C 76.222656 24.09375 68.769531 16.640625 59.578125 16.640625 C 50.386719 16.640625 42.933594 24.09375 42.933594 33.285156 C 42.933594 42.476562 50.386719 49.929688 59.578125 49.929688 C 68.769531 49.929688 76.222656 42.476562 76.222656 33.285156 Z M 76.222656 33.285156 " clip-rule="nonzero"/></clipPath><clipPath id="979cce3c09"><path d="M 45.089844 55.128906 L 74.066406 55.128906 L 74.066406 113.875 L 45.089844 113.875 Z M 45.089844 55.128906 " clip-rule="nonzero"/></clipPath><clipPath id="251f49c65d"><path d="M 74.066406 69.617188 L 74.066406 99.324219 C 74.066406 107.328125 67.578125 113.8125 59.578125 113.8125 C 51.574219 113.8125 45.089844 107.328125 45.089844 99.324219 L 45.089844 69.617188 C 45.089844 61.613281 51.574219 55.128906 59.578125 55.128906 C 67.578125 55.128906 74.066406 61.613281 74.066406 69.617188 Z M 74.066406 69.617188 " clip-rule="nonzero"/></clipPath><clipPath id="2e7f9f30ef"><path d="M 78.378906 4.8125 L 107.355469 4.8125 L 107.355469 150.152344 L 78.378906 150.152344 Z M 78.378906 4.8125 " clip-rule="nonzero"/></clipPath><clipPath id="56ebead2a9"><path d="M 107.355469 19.300781 L 107.355469 135.65625 C 107.355469 143.660156 100.867188 150.144531 92.867188 150.144531 C 84.863281 150.144531 78.378906 143.660156 78.378906 135.65625 L 78.378906 19.300781 C 78.378906 11.300781 84.863281 4.8125 92.867188 4.8125 C 100.867188 4.8125 107.355469 11.300781 107.355469 19.300781 Z M 107.355469 19.300781 " clip-rule="nonzero"/></clipPath><clipPath id="e395efb070"><path d="M 9.152344 77.480469 L 39.292969 77.480469 L 39.292969 150.238281 L 9.152344 150.238281 Z M 9.152344 77.480469 " clip-rule="nonzero"/></clipPath><clipPath id="30e654489a"><path d="M 39.292969 92.550781 L 39.292969 135.074219 C 39.292969 143.398438 32.546875 150.144531 24.222656 150.144531 C 15.898438 150.144531 9.152344 143.398438 9.152344 135.074219 L 9.152344 92.550781 C 9.152344 84.226562 15.898438 77.480469 24.222656 77.480469 C 32.546875 77.480469 39.292969 84.226562 39.292969 92.550781 Z M 39.292969 92.550781 " clip-rule="nonzero"/></clipPath><clipPath id="03a4b709cf"><path d="M 6.007812 38.484375 L 39.296875 38.484375 L 39.296875 71.769531 L 6.007812 71.769531 Z M 6.007812 38.484375 " clip-rule="nonzero"/></clipPath><clipPath id="824121791c"><path d="M 39.296875 55.128906 C 39.296875 45.933594 31.84375 38.484375 22.652344 38.484375 C 13.457031 38.484375 6.007812 45.933594 6.007812 55.128906 C 6.007812 64.320312 13.457031 71.769531 22.652344 71.769531 C 31.84375 71.769531 39.296875 64.320312 39.296875 55.128906 Z M 39.296875 55.128906 " clip-rule="nonzero"/></clipPath><clipPath id="41c546da72"><path d="M 43.589844 116.855469 L 76.878906 116.855469 L 76.878906 150.144531 L 43.589844 150.144531 Z M 43.589844 116.855469 " clip-rule="nonzero"/></clipPath><clipPath id="fdf3c89ebc"><path d="M 76.878906 133.5 C 76.878906 124.308594 69.425781 116.855469 60.234375 116.855469 C 51.042969 116.855469 43.589844 124.308594 43.589844 133.5 C 43.589844 142.695312 51.042969 150.144531 60.234375 150.144531 C 69.425781 150.144531 76.878906 142.695312 76.878906 133.5 Z M 76.878906 133.5 " clip-rule="nonzero"/></clipPath></defs><g clip-path="url(#4162f7752d)"><g clip-path="url(#06a4384318)"><path fill="#0343e8" d="M 76.222656 16.640625 L 76.222656 49.929688 L 42.933594 49.929688 L 42.933594 16.640625 Z M 76.222656 16.640625 " fill-opacity="1" fill-rule="nonzero"/></g></g><g clip-path="url(#979cce3c09)"><g clip-path="url(#251f49c65d)"><path fill="#737373" d="M 74.066406 55.128906 L 74.066406 113.761719 L 45.089844 113.761719 L 45.089844 55.128906 Z M 74.066406 55.128906 " fill-opacity="1" fill-rule="nonzero"/></g></g><g clip-path="url(#2e7f9f30ef)"><g clip-path="url(#56ebead2a9)"><path fill="#000000" d="M 107.355469 4.8125 L 107.355469 150.152344 L 78.378906 150.152344 L 78.378906 4.8125 Z M 107.355469 4.8125 " fill-opacity="1" fill-rule="nonzero"/></g></g><g clip-path="url(#e395efb070)"><g clip-path="url(#30e654489a)"><path fill="#000000" d="M 39.292969 77.480469 L 39.292969 150.121094 L 9.152344 150.121094 L 9.152344 77.480469 Z M 39.292969 77.480469 " fill-opacity="1" fill-rule="nonzero"/></g></g><g clip-path="url(#03a4b709cf)"><g clip-path="url(#824121791c)"><path fill="#eb1d27" d="M 39.296875 38.484375 L 39.296875 71.769531 L 6.007812 71.769531 L 6.007812 38.484375 Z M 39.296875 38.484375 " fill-opacity="1" fill-rule="nonzero"/></g></g><g clip-path="url(#41c546da72)"><g clip-path="url(#fdf3c89ebc)"><path fill="#a6a6a6" d="M 76.878906 116.855469 L 76.878906 150.144531 L 43.589844 150.144531 L 43.589844 116.855469 Z M 76.878906 116.855469 " fill-opacity="1" fill-rule="nonzero"/></g></g></svg>